<svg xmlns="http://www.w3.org/2000/svg" version="1.1" xmlns:xlink="http://www.w3.org/1999/xlink" xmlns:svgjs="http://svgjs.com/svgjs" width="1439" height="558" preserveAspectRatio="none" viewBox="0 0 1439 558"><g mask="url(&quot;#SvgjsMask1052&quot;)" fill="none"><path d="M719.5 531.98C785.59 531.1 846.11 499.07 892.73 452.23 939.21 405.5 964.36 344.56 971.22 279 979.06 204.2 982.4 122.18 933.21 65.29 881.71 5.72 798.08-17.47 719.5-12.15 645.56-7.15 581.91 36.8 532.87 92.37 487.16 144.18 460.98 209.92 462.65 279 464.28 346.41 493.6 409.53 541.65 456.85 589.33 503.8 652.6 532.86 719.5 531.98" fill="rgba(12, 88, 81, 1)"></path><path d="M719.5 393.99C749.54 393.59 777.05 379.03 798.24 357.74 819.37 336.5 830.8 308.8 833.92 279 837.48 245 839 207.72 816.64 181.86 793.23 154.78 755.22 144.24 719.5 146.66 685.89 148.93 656.96 168.91 634.67 194.17 613.89 217.72 601.99 247.6 602.75 279 603.49 309.64 616.82 338.33 638.66 359.84 660.33 381.18 689.09 394.39 719.5 393.99" fill="rgba(12, 88, 81, 1)"></path></g><defs><mask id="SvgjsMask1052"><rect width="1439" height="558" fill="#ffffff"></rect></mask></defs></svg>